<svg xmlns="http://www.w3.org/2000/svg" width="416" height="128">
    <style>
        line, path, circle, rect, polygon{stroke:black;stroke-width:2;stroke-opacity:1;fill-opacity:1;stroke-linecap:round;stroke-linejoin:miter;}text{font-family:Monospace;font-size:14px;}rect.backdrop{stroke:none;fill:white;}.broken{stroke-dasharray:8;}.filled{fill:black;}.bg_filled{fill:white;}.nofill{fill:white;}.end_marked_arrow{marker-end:url(#arrow);}.start_marked_arrow{marker-start:url(#arrow);}.end_marked_diamond{marker-end:url(#diamond);}.start_marked_diamond{marker-start:url(#diamond);}.end_marked_circle{marker-end:url(#circle);}.start_marked_circle{marker-start:url(#circle);}.end_marked_open_circle{marker-end:url(#open_circle);}.start_marked_open_circle{marker-start:url(#open_circle);}.end_marked_big_open_circle{marker-end:url(#big_open_circle);}.start_marked_big_open_circle{marker-start:url(#big_open_circle);}
        <!--separator-->
        
    </style>
    <defs>
        <marker id="arrow" viewBox="-2 -2 8 8" refX="4" refY="2" markerWidth="7" markerHeight="7" orient="auto-start-reverse">
            <polygon points="0,0 0,4 4,2 0,0"></polygon>
        </marker>
        <marker id="diamond" viewBox="-2 -2 8 8" refX="4" refY="2" markerWidth="7" markerHeight="7" orient="auto-start-reverse">
            <polygon points="0,2 2,0 4,2 2,4 0,2"></polygon>
        </marker>
        <marker id="circle" viewBox="0 0 8 8" refX="4" refY="4" markerWidth="7" markerHeight="7" orient="auto-start-reverse">
            <circle cx="4" cy="4" r="2" class="filled"></circle>
        </marker>
        <marker id="open_circle" viewBox="0 0 8 8" refX="4" refY="4" markerWidth="7" markerHeight="7" orient="auto-start-reverse">
            <circle cx="4" cy="4" r="2" class="bg_filled"></circle>
        </marker>
        <marker id="big_open_circle" viewBox="0 0 8 8" refX="4" refY="4" markerWidth="7" markerHeight="7" orient="auto-start-reverse">
            <circle cx="4" cy="4" r="3" class="bg_filled"></circle>
        </marker>
    </defs>
    <rect class="backdrop" x="0" y="0" width="416" height="128"></rect>
    <path d="M 24,4 A 20,20 0,0,0 4,24" class="nofill"></path>
    <text x="18" y="28" >root</text>
    <text x="10" y="44" >&#39;</text>
    <text x="50" y="60" >js</text>
    <text x="50" y="76" >katex</text>
    <text x="50" y="92" >styles</text>
    <text x="226" y="28" >template</text>
    <text x="298" y="28" >root</text>
    <text x="338" y="28" >directory</text>
    <text x="226" y="60" >javascripts</text>
    <text x="226" y="76" >LateX</text>
    <text x="274" y="76" >math</text>
    <text x="314" y="76" >renderer</text>
    <text x="226" y="92" >stylesheets</text>
    <text x="226" y="108" >Html</text>
    <text x="266" y="108" >page</text>
    <text x="306" y="108" >template</text>
    <text x="322" y="60" >(*.js)</text>
    <text x="322" y="92" >(*.css)</text>
    <text x="50" y="108" >md-template.html</text>
    <g>
        <line x1="24" y1="8" x2="48" y2="8" class="solid"></line>
        <path d="M 48,8 A 8,8 0,0,1 54,12" class="nofill"></path>
        <line x1="54" y1="12" x2="56" y2="16" class="solid"></line>
        <path d="M 56,16 A 16,16 0,0,1 56,32" class="nofill"></path>
        <line x1="56" y1="32" x2="54" y2="36" class="solid"></line>
        <line x1="16" y1="40" x2="24" y2="40" class="solid"></line>
        <path d="M 24,40 A 4,4 0,0,1 28,44" class="nofill"></path>
        <path d="M 32,40 A 4,4 0,0,0 28,44" class="nofill"></path>
        <line x1="28" y1="44" x2="28" y2="100" class="solid"></line>
        <line x1="32" y1="40" x2="48" y2="40" class="solid"></line>
        <path d="M 54,36 A 8,8 0,0,1 48,40" class="nofill"></path>
        <line x1="28" y1="56" x2="40" y2="56" class="solid"></line>
        <line x1="28" y1="72" x2="40" y2="72" class="solid"></line>
        <line x1="28" y1="88" x2="40" y2="88" class="solid"></line>
        <path d="M 28,100 A 4,4 0,0,0 32,104" class="nofill"></path>
        <line x1="32" y1="104" x2="40" y2="104" class="solid"></line>
    </g>
    <g>
        <polygon points="208,20 200,24 208,28" class="filled"></polygon>
        <line x1="208" y1="24" x2="216" y2="24" class="solid"></line>
    </g>
    <g>
        <polygon points="208,52 200,56 208,60" class="filled"></polygon>
        <line x1="208" y1="56" x2="216" y2="56" class="solid"></line>
    </g>
    <g>
        <polygon points="208,68 200,72 208,76" class="filled"></polygon>
        <line x1="208" y1="72" x2="216" y2="72" class="solid"></line>
    </g>
    <g>
        <polygon points="208,84 200,88 208,92" class="filled"></polygon>
        <line x1="208" y1="88" x2="216" y2="88" class="solid"></line>
    </g>
    <g>
        <polygon points="208,100 200,104 208,108" class="filled"></polygon>
        <line x1="208" y1="104" x2="216" y2="104" class="solid"></line>
    </g>
</svg>