<svg xmlns="http://www.w3.org/2000/svg" width="448" height="240">
    <style>line, path, circle,rect,polygon {
                          stroke: black;
                          stroke-width: 2;
                          stroke-opacity: 1;
                          fill-opacity: 1;
                          stroke-linecap: round;
                          stroke-linejoin: miter;
                        }

                    text {
                        /* This fix the spacing bug in svg text*/
                        white-space: pre;
                        fill: black;
                        }
                        rect.backdrop{
                            stroke: none;
                            fill: white;
                        }
                        .broken{
                            stroke-dasharray: 8;
                        }
                        .filled{
                            fill: black;
                        }
                        .bg_filled{
                            fill: white;
                        }
                        .nofill{
                            fill: white;
                        }

                        text {
                         font-family: Monospace;
                         font-size: 14px;
                        }

                        .end_marked_arrow{
                            marker-end: url(#arrow);
                         }
                        .start_marked_arrow{
                            marker-start: url(#arrow);
                         }

                        .end_marked_diamond{
                            marker-end: url(#diamond);
                         }
                        .start_marked_diamond{
                            marker-start: url(#diamond);
                         }

                        .end_marked_circle{
                            marker-end: url(#circle);
                         }
                        .start_marked_circle{
                            marker-start: url(#circle);
                         }

                        .end_marked_open_circle{
                            marker-end: url(#open_circle);
                         }
                        .start_marked_open_circle{
                            marker-start: url(#open_circle);
                         }

                        .end_marked_big_open_circle{
                            marker-end: url(#big_open_circle);
                         }
                        .start_marked_big_open_circle{
                            marker-start: url(#big_open_circle);
                         }

                         
                        </style>
    <defs>
        <marker id="arrow" viewBox="-2 -2 8 8" refX="4" refY="2" markerWidth="7" markerHeight="7" orient="auto-start-reverse">
            <polygon points="0,0 0,4 4,2 0,0"></polygon>
        </marker>
        <marker id="diamond" viewBox="-2 -2 8 8" refX="4" refY="2" markerWidth="7" markerHeight="7" orient="auto-start-reverse">
            <polygon points="0,2 2,0 4,2 2,4 0,2"></polygon>
        </marker>
        <marker id="circle" viewBox="0 0 8 8" refX="4" refY="4" markerWidth="7" markerHeight="7" orient="auto-start-reverse">
            <circle cx="4" cy="4" r="2" class="filled"></circle>
        </marker>
        <marker id="open_circle" viewBox="0 0 8 8" refX="4" refY="4" markerWidth="7" markerHeight="7" orient="auto-start-reverse">
            <circle cx="4" cy="4" r="2" class="bg_filled"></circle>
        </marker>
        <marker id="big_open_circle" viewBox="0 0 8 8" refX="4" refY="4" markerWidth="7" markerHeight="7" orient="auto-start-reverse">
            <circle cx="4" cy="4" r="3" class="bg_filled"></circle>
        </marker>
    </defs>
    <rect class="backdrop" x="0" y="0" width="448" height="240"></rect>
    <rect x="0" y="4" width="8" height="8" class="solid filled" rx="0"></rect>
    <text x="242" y="12" >project</text>
    <text x="306" y="12" >root</text>
    <text x="242" y="28" >build</text>
    <text x="290" y="28" >output</text>
    <text x="242" y="44" >authored</text>
    <text x="314" y="44" >Markdown</text>
    <text x="26" y="28" >html</text>
    <text x="26" y="44" >markdown</text>
    <text x="74" y="76" >README.md</text>
    <text x="26" y="92" >Template</text>
    <text x="386" y="44" >content</text>
    <text x="242" y="76" >initial</text>
    <text x="306" y="76" >content</text>
    <text x="242" y="92" >template</text>
    <text x="314" y="92" >resources</text>
    <text x="74" y="124" >js</text>
    <text x="74" y="140" >katex</text>
    <text x="74" y="156" >styles</text>
    <text x="74" y="172" >md</text>
    <line x1="88" y1="168" x2="96" y2="168" class="solid"></line>
    <text x="98" y="172" >template.html</text>
    <text x="242" y="124" >javascripts</text>
    <text x="242" y="140" >LaTeX</text>
    <text x="290" y="140" >math</text>
    <text x="330" y="140" >renderer</text>
    <text x="242" y="156" >stylesheets</text>
    <text x="242" y="172" >Html</text>
    <text x="282" y="172" >page</text>
    <text x="322" y="172" >template</text>
    <text x="26" y="204" >Build.json</text>
    <text x="26" y="220" >Build.ps1</text>
    <text x="242" y="204" >project</text>
    <text x="306" y="204" >configuration</text>
    <text x="242" y="220" >build</text>
    <text x="290" y="220" >script</text>
    <text x="346" y="28" >(static site)</text>
    <text x="338" y="124" >(*.js)</text>
    <text x="338" y="156" >(*.css)</text>
    <g>
        <line x1="4" y1="12" x2="4" y2="212" class="solid"></line>
        <line x1="4" y1="24" x2="16" y2="24" class="solid"></line>
        <line x1="4" y1="40" x2="16" y2="40" class="solid"></line>
        <line x1="4" y1="88" x2="16" y2="88" class="solid"></line>
        <line x1="4" y1="200" x2="16" y2="200" class="solid"></line>
        <path d="M 4,212 A 4,4 0,0,0 8,216" class="nofill"></path>
        <line x1="8" y1="216" x2="16" y2="216" class="solid"></line>
    </g>
    <g>
        <polygon points="224,4 216,8 224,12" class="filled"></polygon>
        <line x1="224" y1="8" x2="232" y2="8" class="solid"></line>
    </g>
    <g>
        <polygon points="224,20 216,24 224,28" class="filled"></polygon>
        <line x1="224" y1="24" x2="232" y2="24" class="solid"></line>
    </g>
    <g>
        <polygon points="224,36 216,40 224,44" class="filled"></polygon>
        <line x1="224" y1="40" x2="232" y2="40" class="solid"></line>
    </g>
    <g>
        <line x1="52" y1="48" x2="52" y2="68" class="solid"></line>
        <path d="M 52,68 A 4,4 0,0,0 56,72" class="nofill"></path>
        <line x1="56" y1="72" x2="64" y2="72" class="solid"></line>
    </g>
    <g>
        <line x1="52" y1="96" x2="52" y2="164" class="solid"></line>
        <line x1="52" y1="120" x2="64" y2="120" class="solid"></line>
        <line x1="52" y1="136" x2="64" y2="136" class="solid"></line>
        <line x1="52" y1="152" x2="64" y2="152" class="solid"></line>
        <path d="M 52,164 A 4,4 0,0,0 56,168" class="nofill"></path>
        <line x1="56" y1="168" x2="64" y2="168" class="solid"></line>
    </g>
    <g>
        <polygon points="224,68 216,72 224,76" class="filled"></polygon>
        <line x1="224" y1="72" x2="232" y2="72" class="solid"></line>
    </g>
    <g>
        <polygon points="224,84 216,88 224,92" class="filled"></polygon>
        <line x1="224" y1="88" x2="232" y2="88" class="solid"></line>
    </g>
    <g>
        <polygon points="224,116 216,120 224,124" class="filled"></polygon>
        <line x1="224" y1="120" x2="232" y2="120" class="solid"></line>
    </g>
    <g>
        <polygon points="224,132 216,136 224,140" class="filled"></polygon>
        <line x1="224" y1="136" x2="232" y2="136" class="solid"></line>
    </g>
    <g>
        <polygon points="224,148 216,152 224,156" class="filled"></polygon>
        <line x1="224" y1="152" x2="232" y2="152" class="solid"></line>
    </g>
    <g>
        <polygon points="224,164 216,168 224,172" class="filled"></polygon>
        <line x1="224" y1="168" x2="232" y2="168" class="solid"></line>
    </g>
    <g>
        <polygon points="224,196 216,200 224,204" class="filled"></polygon>
        <line x1="224" y1="200" x2="232" y2="200" class="solid"></line>
    </g>
    <g>
        <polygon points="224,212 216,216 224,220" class="filled"></polygon>
        <line x1="224" y1="216" x2="232" y2="216" class="solid"></line>
    </g>
</svg>