<svg xmlns="http://www.w3.org/2000/svg" width="264" height="64" class="svgbob">
  <style>.svgbob line, .svgbob path, .svgbob circle, .svgbob rect, .svgbob polygon {
  stroke: black;
  stroke-width: 2;
  stroke-opacity: 1;
  fill-opacity: 1;
  stroke-linecap: round;
  stroke-linejoin: miter;
}

.svgbob text {
  white-space: pre;
  fill: black;
  font-family: Monospace;
  font-size: 14px;
}

.svgbob rect.backdrop {
  stroke: none;
  fill: white;
}

.svgbob .broken {
  stroke-dasharray: 8;
}

.svgbob .filled {
  fill: black;
}

.svgbob .bg_filled {
  fill: white;
  stroke-width: 1;
}

.svgbob .nofill {
  fill: white;
}

.svgbob .end_marked_arrow {
  marker-end: url(#arrow);
}

.svgbob .start_marked_arrow {
  marker-start: url(#arrow);
}

.svgbob .end_marked_diamond {
  marker-end: url(#diamond);
}

.svgbob .start_marked_diamond {
  marker-start: url(#diamond);
}

.svgbob .end_marked_circle {
  marker-end: url(#circle);
}

.svgbob .start_marked_circle {
  marker-start: url(#circle);
}

.svgbob .end_marked_open_circle {
  marker-end: url(#open_circle);
}

.svgbob .start_marked_open_circle {
  marker-start: url(#open_circle);
}

.svgbob .end_marked_big_open_circle {
  marker-end: url(#big_open_circle);
}

.svgbob .start_marked_big_open_circle {
  marker-start: url(#big_open_circle);
}

</style>
  <defs>
    <marker id="arrow" viewBox="-2 -2 8 8" refX="4" refY="2" markerWidth="7" markerHeight="7" orient="auto-start-reverse">
      <polygon points="0,0 0,4 4,2 0,0"></polygon>
    </marker>
    <marker id="diamond" viewBox="-2 -2 8 8" refX="4" refY="2" markerWidth="7" markerHeight="7" orient="auto-start-reverse">
      <polygon points="0,2 2,0 4,2 2,4 0,2"></polygon>
    </marker>
    <marker id="circle" viewBox="0 0 8 8" refX="4" refY="4" markerWidth="7" markerHeight="7" orient="auto-start-reverse">
      <circle cx="4" cy="4" r="2" class="filled"></circle>
    </marker>
    <marker id="open_circle" viewBox="0 0 8 8" refX="4" refY="4" markerWidth="7" markerHeight="7" orient="auto-start-reverse">
      <circle cx="4" cy="4" r="2" class="bg_filled"></circle>
    </marker>
    <marker id="big_open_circle" viewBox="0 0 8 8" refX="4" refY="4" markerWidth="7" markerHeight="7" orient="auto-start-reverse">
      <circle cx="4" cy="4" r="3" class="bg_filled"></circle>
    </marker>
  </defs>
  <rect class="backdrop" x="0" y="0" width="264" height="64"></rect>
  <line x1="16" y1="24" x2="4" y2="24" class="solid end_marked_open_circle"></line>
  <text x="58" y="28" >elem</text>
  <text x="138" y="28" >;</text>
  <text x="194" y="28" >n</text>
  <line x1="212" y1="24" x2="252" y2="24" class="solid end_marked_open_circle"></line>
  <g>
    <line x1="44" y1="8" x2="100" y2="8" class="solid"></line>
    <line x1="44" y1="8" x2="44" y2="40" class="solid"></line>
    <line x1="100" y1="8" x2="100" y2="40" class="solid"></line>
    <line x1="16" y1="24" x2="44" y2="24" class="solid"></line>
    <line x1="100" y1="24" x2="120" y2="24" class="solid"></line>
    <line x1="44" y1="40" x2="100" y2="40" class="solid"></line>
  </g>
  <g>
    <path d="M 136,8 A 8,8 0,0,0 130,12" class="nofill"></path>
    <line x1="130" y1="12" x2="128" y2="16" class="solid"></line>
    <line x1="136" y1="8" x2="144" y2="8" class="solid"></line>
    <path d="M 144,8 A 8,8 0,0,1 150,12" class="nofill"></path>
    <line x1="150" y1="12" x2="152" y2="16" class="solid"></line>
    <path d="M 128,16 A 16,16 0,0,0 128,32" class="nofill"></path>
    <path d="M 152,16 A 16,16 0,0,1 152,32" class="nofill"></path>
    <line x1="128" y1="32" x2="130" y2="36" class="solid"></line>
    <path d="M 130,36 A 8,8 0,0,0 136,40" class="nofill"></path>
    <line x1="136" y1="40" x2="144" y2="40" class="solid"></line>
    <line x1="152" y1="32" x2="150" y2="36" class="solid"></line>
    <path d="M 150,36 A 8,8 0,0,1 144,40" class="nofill"></path>
  </g>
  <g>
    <line x1="180" y1="8" x2="212" y2="8" class="solid"></line>
    <line x1="180" y1="8" x2="180" y2="40" class="solid"></line>
    <line x1="212" y1="8" x2="212" y2="40" class="solid"></line>
    <line x1="160" y1="24" x2="180" y2="24" class="solid"></line>
    <line x1="180" y1="40" x2="212" y2="40" class="solid"></line>
  </g>
</svg>